<?xml version="1.0"?>
<svg version="1.1" xmlns="http://www.w3.org/2000/svg" width="330px" height="70px" style=""><path fill="#80d2f7" d="M8.2,54.15l0.75,4.2s2,1.05,4.9,1.05c3.2,0,6.05-1.4,6.05-4.05c0-5.85-16.9-3.25-16.9-15.6c0-6.9,5.45-10.6,12.7-10.6c5.65,0,11,2,11,2l-0.25,9.1l-4.6,0l-1.25-4.25s-2.25-0.75-4.4-0.75c-3.55,0-5.3,1.55-5.3,3.55c0,5.8,16.85,3.5,16.85,15.25c0,7.5-5.8,11.6-13.5,11.6c-5.65,0-11.15-1.9-11.15-1.9l0-9.6l5.1,0z M59.8255,41l-1.15-4.8s-2.35-0.8-5.6-0.8c-5.25,0-8.25,3.9-8.25,12.25c0,8.1,3.25,11.5,8.5,11.5c5,0,9.5-3.5,9.5-3.5l2.75,4.5s-5.25,5.45-13.1,5.45c-10.15,0-16-6.1-16-17.7c0-11.75,6.6-18.75,16.85-18.75c6.05,0,11.65,2.35,11.65,2.35l-0.25,9.5l-4.9,0z M89.801,29.15c10,0,15.75,6.6,15.75,17.75c0,11.25-6.75,18.75-16.75,18.75s-15.5-6.25-15.5-18c0-11.5,6.35-18.5,16.5-18.5z M89.551,35.4c-5,0-7.75,3.1-7.75,12c0,8.25,2.25,12,7.25,12s8-3.25,8-12.25c0-8.25-2.5-11.75-7.5-11.75z M117.5265,59.25l0-23.5l-3.75-1.5l0-4.25l11.5-0.25l4.75,0c10,0,15.9,5.9,15.9,17.15s-6.5,18.1-16.65,18.1l-15.5,0l0-4.25z M125.2765,59l4.15,0c4.85,0,8.1-2.85,8.1-11.85c0-8.4-2.85-11.4-7.75-11.4l-4.5,0l0,23.25z M175.752,44l0,5.5l-10.1,0l0,9.5l8.95,0l1.15-4.1l4.5,0l0,10.1l-26.1,0l0-4.25l3.75-1.5l0-23.5l-3.75-1.5l0-4.25l11.5-0.25l14,0l0,9.65l-4.5,0l-1.25-3.65l-8.25,0l0,8.25l10.1,0z"/><path fill="#d13b88" d="M191.5,59.75l17.75-24l-10.5,0l-1.25,4.5l-4.75,0l0-10.5l26.5,0l0,5.65l-17.4,23.6l11.4,0l1.1-5l4.75,0l0,11l-27.6,0l0-5.25z M233.2255,65l0-4.25l3.75-1.5l0-6.45l-9.15-17.2l-3.25-1.35l0-4.25l14.15-0.25l0,4.5l-2.55,1.05l5,10.75l5.3-10.7l-2.75-1.1l0-4.25l13.5-0.25l0,4.5l-3.45,1.35l-9.05,17.15l0,6.5l3.75,1.5l0,4.25l-15.25,0z"/></svg>
